<svg id="Layer_1" data-name="Layer 1" xmlns="http://www.w3.org/2000/svg" viewBox="0 0 485.26 448.59"><path d="M158.5,157.11,129,91.38a12.49,12.49,0,0,1,11.4-17.62H359.6A12.49,12.49,0,0,1,371,91.38l-29.5,65.73L250,360.91Z" transform="translate(-7.37 -25.71)" style="fill:#1d1d1b"/><path d="M140.4,73.76A12.49,12.49,0,0,0,129,91.38l29.5,65.73H140.4A12.49,12.49,0,0,0,129,174.73L250,444.26,371,174.73a12.49,12.49,0,0,0-11.4-17.62H341.5L371,91.38a12.49,12.49,0,0,0-11.4-17.62Zm326.23,80.68C526.1,270.66,480.1,413.08,363.89,472.55l-12.41-24.26C235.27,507.76,92.85,461.77,33.37,345.56S19.9,86.92,136.11,27.45l12.41,24.26C264.73-7.76,407.15,38.23,466.63,154.44Z" transform="translate(-7.37 -25.71)" style="fill:#413467"/><path d="M359.6,157.11A12.49,12.49,0,0,1,371,174.73L250,444.26,129,174.73a12.49,12.49,0,0,1,11.4-17.62h18.1L250,360.91l91.5-203.8Z" transform="translate(-7.37 -25.71)" style="fill:#1d1d1b"/><path d="M341.5,157.11h18.1A12.49,12.49,0,0,1,371,174.73L250,444.26,129,174.73a12.49,12.49,0,0,1,11.4-17.62h18.1" transform="translate(-7.37 -25.71)" style="fill:none;stroke:#fff;stroke-miterlimit:10;stroke-width:3px"/><polyline points="334.13 131.4 242.63 335.2 151.13 131.4" style="fill:none;stroke:#fff;stroke-miterlimit:10;stroke-width:3px"/><path d="M158.5,157.11,129,91.38a12.49,12.49,0,0,1,11.4-17.62H359.6A12.49,12.49,0,0,1,371,91.38l-29.5,65.73" transform="translate(-7.37 -25.71)" style="fill:none;stroke:#fff;stroke-miterlimit:10;stroke-width:3px"/></svg>