<?xml version="1.0" encoding="utf-8"?>
<!-- Generator: Adobe Illustrator 26.0.0, SVG Export Plug-In . SVG Version: 6.00 Build 0)  -->
<svg version="1.1" id="Layer_1" xmlns="http://www.w3.org/2000/svg" xmlns:xlink="http://www.w3.org/1999/xlink" x="0px" y="0px"
	 viewBox="0 0 500 500" style="enable-background:new 0 0 500 500;" xml:space="preserve">
<style type="text/css">
	.st0{fill:#704C75;}
	.st1{fill:#FFFFFF;stroke:#FFFFFF;stroke-miterlimit:10;}
	.st2{fill:#FFFFFF;stroke:#FFFFFF;stroke-width:15;stroke-miterlimit:10;}
</style>
<circle cx="250" cy="250" r="250"/>
<g>
	<g id="XMLID_00000041985537246190513590000004712772671213764284_">
		<g>
			<path class="st0" d="M250,0c138.07,0,250,111.93,250,250c0,76.14-34.04,144.32-87.72,190.18c0,0-175.77-6.79-162.28-190.18
				C263.49,66.61,99.14,50.63,99.14,50.63C141.07,18.85,193.33,0,250,0z"/>
		</g>
		<g>
		</g>
	</g>
</g>
<g>
	<path class="st1" d="M75.64,240.22c17.06-3.18,25.59-11.96,25.59-26.34c0-6.35-0.84-17.22-2.51-32.61
		c-1.67-16.39-2.51-28.26-2.51-35.62c0-12.04,3.39-21.24,10.16-27.6c6.77-6.35,15.84-9.53,27.22-9.53h14.55v19.82h-10.29
		c-6.52,0-11.38,1.47-14.55,4.39c-3.18,2.93-4.77,7.74-4.77,14.43c0,4.85,0.33,10.83,1,17.94c0.67,7.11,1.09,11.92,1.25,14.43
		c1.67,16.06,2.51,27.77,2.51,35.12c0,8.87-2.22,16.27-6.65,22.2c-4.43,5.94-11.25,9.91-20.45,11.92v0.5
		c9.2,2.01,16.01,6.02,20.45,12.04c4.43,6.02,6.65,13.46,6.65,22.33c0,7.36-0.84,19.07-2.51,35.12c-0.17,2.51-0.59,7.32-1.25,14.43
		c-0.67,7.11-1,13.08-1,17.94c0,6.69,1.59,11.5,4.77,14.43c3.17,2.92,8.03,4.39,14.55,4.39h10.29v19.82h-14.55
		c-11.38,0-20.45-3.18-27.22-9.53c-6.77-6.36-10.16-15.55-10.16-27.6c0-7.36,0.83-19.23,2.51-35.62
		c1.67-15.39,2.51-26.26,2.51-32.61c0-14.38-8.53-23.16-25.59-26.34V240.22z"/>
	<path class="st2" d="M329.03,167.96l-65.98,174.86H236.7l-65.98-174.86h24.34L250,318.74l54.94-150.78H329.03z"/>
	<path class="st1" d="M398.77,284.37c0,6.36,0.83,17.23,2.51,32.61c1.67,16.39,2.51,28.26,2.51,35.62c0,12.04-3.39,21.24-10.16,27.6
		c-6.77,6.35-15.85,9.53-27.22,9.53h-14.55v-19.82h10.29c6.52,0,11.37-1.47,14.55-4.39c3.17-2.93,4.77-7.74,4.77-14.43
		c0-4.85-0.34-10.83-1-17.94c-0.67-7.11-1.09-11.92-1.25-14.43c-1.67-16.06-2.51-27.76-2.51-35.12c0-8.86,2.21-16.31,6.65-22.33
		c4.43-6.02,11.25-10.04,20.45-12.04v-0.5c-9.2-2.01-16.02-5.98-20.45-11.92c-4.43-5.94-6.65-13.34-6.65-22.2
		c0-7.36,0.83-19.07,2.51-35.12c0.16-2.51,0.58-7.31,1.25-14.43c0.67-7.11,1-13.08,1-17.94c0-6.69-1.59-11.5-4.77-14.43
		c-3.18-2.92-8.03-4.39-14.55-4.39h-10.29V108.5h14.55c11.37,0,20.45,3.18,27.22,9.53c6.77,6.36,10.16,15.55,10.16,27.6
		c0,7.36-0.84,19.24-2.51,35.62c-1.67,15.39-2.51,26.26-2.51,32.61c0,14.39,8.53,23.17,25.59,26.34v17.81
		C407.3,261.21,398.77,269.99,398.77,284.37z"/>
</g>
</svg>
