<svg id="b326507d-27ee-464c-8ec3-dff21f017f97" data-name="Layer 1" xmlns="http://www.w3.org/2000/svg" viewBox="0 0 490.71 71.54"><path d="M84.68,10.3,56.56,76.8h-22L6.4,10.3H30.53L46.39,49.15,62.64,10.3Z" transform="translate(-4.89 -7.78)" style="fill:#1d1d1b;stroke:#e30613;stroke-miterlimit:10;stroke-width:2px"/><path d="M101.49,73.86A33.33,33.33,0,0,1,83.25,43.55a33.33,33.33,0,0,1,18.24-30.31,41.11,41.11,0,0,1,19.28-4.46,41.12,41.12,0,0,1,19.29,4.46A33.29,33.29,0,0,1,158.3,43.55a33.29,33.29,0,0,1-18.24,30.31,41.12,41.12,0,0,1-19.29,4.46A41.11,41.11,0,0,1,101.49,73.86Zm26.84-15.73a14.6,14.6,0,0,0,5.37-5.79,18.57,18.57,0,0,0,2-8.79,18.6,18.6,0,0,0-2-8.79A14.6,14.6,0,0,0,128.33,29a14.95,14.95,0,0,0-15.11,0,14.68,14.68,0,0,0-5.37,5.79,18.48,18.48,0,0,0-2,8.79,18.45,18.45,0,0,0,2,8.79,14.68,14.68,0,0,0,5.37,5.79,15,15,0,0,0,15.11,0Z" transform="translate(-4.89 -7.78)" style="fill:#1d1d1b;stroke:#e30613;stroke-miterlimit:10;stroke-width:2px"/><path d="M166.47,10.3h22.42V76.8H166.47Z" transform="translate(-4.89 -7.78)" style="fill:#1d1d1b;stroke:#e30613;stroke-miterlimit:10;stroke-width:2px"/><path d="M199.72,10.3h32.77a45.28,45.28,0,0,1,19.62,4,30.76,30.76,0,0,1,13.21,11.54A32.61,32.61,0,0,1,270,43.55a32.61,32.61,0,0,1-4.7,17.67,30.76,30.76,0,0,1-13.21,11.54,45.28,45.28,0,0,1-19.62,4H199.72Zm31.82,49c4.82,0,8.66-1.38,11.55-4.13s4.32-6.64,4.32-11.64-1.44-8.88-4.32-11.64-6.73-4.13-11.55-4.13h-9.4V59.32Z" transform="translate(-4.89 -7.78)" style="fill:#1d1d1b;stroke:#e30613;stroke-miterlimit:10;stroke-width:2px"/><path d="M322.08,73.9a33,33,0,0,1-13.26-12.35,34.06,34.06,0,0,1-4.79-18,34.08,34.08,0,0,1,4.79-18A33,33,0,0,1,322.08,13.2a40.33,40.33,0,0,1,19-4.42,41.72,41.72,0,0,1,17.29,3.42,32.16,32.16,0,0,1,12.54,9.88L356.75,34.71q-6.18-7.79-14.53-7.79a14.85,14.85,0,0,0-11.31,4.52q-4.28,4.52-4.27,12.11t4.27,12.11a14.85,14.85,0,0,0,11.31,4.51q8.36,0,14.53-7.79L370.91,65a32.16,32.16,0,0,1-12.54,9.88,41.72,41.72,0,0,1-17.29,3.42A40.33,40.33,0,0,1,322.08,73.9Z" transform="translate(-4.89 -7.78)" style="fill:#1d1d1b;stroke:#e30613;stroke-miterlimit:10;stroke-width:2px"/><path d="M385.11,76.47a43.16,43.16,0,0,1-12.87-5l7.22-16.34a45.78,45.78,0,0,0,10.64,4.42,41.45,41.45,0,0,0,11.3,1.66,17.58,17.58,0,0,0,6.65-.9,2.91,2.91,0,0,0,2-2.71c0-1.39-.88-2.44-2.62-3.14a57.6,57.6,0,0,0-8.59-2.28A97.45,97.45,0,0,1,386,48.73a21.87,21.87,0,0,1-8.93-6.08q-3.79-4.23-3.8-11.45a19.68,19.68,0,0,1,3.52-11.4,23.26,23.26,0,0,1,10.49-8.08,43.7,43.7,0,0,1,17-2.94,61.63,61.63,0,0,1,13.44,1.47,42.13,42.13,0,0,1,11.64,4.32l-6.74,16.25q-9.79-4.93-18.53-4.94t-8.64,4.18c0,1.33.85,2.33,2.56,3a53.68,53.68,0,0,0,8.46,2.14,86.32,86.32,0,0,1,12.82,3.28,22.2,22.2,0,0,1,9.07,6q3.85,4.19,3.85,11.4a19.52,19.52,0,0,1-3.51,11.35,23.77,23.77,0,0,1-10.5,8.08,43.11,43.11,0,0,1-17,3A70,70,0,0,1,385.11,76.47Z" transform="translate(-4.89 -7.78)" style="fill:#1d1d1b;stroke:#e30613;stroke-miterlimit:10;stroke-width:2px"/><path d="M447.52,76.47a43.37,43.37,0,0,1-12.87-5l7.22-16.34a46,46,0,0,0,10.64,4.42,41.57,41.57,0,0,0,11.31,1.66,17.58,17.58,0,0,0,6.65-.9,2.9,2.9,0,0,0,2-2.71c0-1.39-.87-2.44-2.61-3.14a57.81,57.81,0,0,0-8.6-2.28,97.26,97.26,0,0,1-12.82-3.46,21.87,21.87,0,0,1-8.93-6.08q-3.81-4.23-3.8-11.45a19.74,19.74,0,0,1,3.51-11.4,23.24,23.24,0,0,1,10.5-8.08,43.66,43.66,0,0,1,17-2.94,61.63,61.63,0,0,1,13.44,1.47,42.13,42.13,0,0,1,11.64,4.32L485,30.82q-9.78-4.93-18.52-4.94t-8.65,4.18c0,1.33.86,2.33,2.57,3a53.48,53.48,0,0,0,8.45,2.14,86.48,86.48,0,0,1,12.83,3.28,22.27,22.27,0,0,1,9.07,6q3.84,4.19,3.85,11.4a19.53,19.53,0,0,1-3.52,11.35,23.65,23.65,0,0,1-10.5,8.08,43,43,0,0,1-16.95,3A70.13,70.13,0,0,1,447.52,76.47Z" transform="translate(-4.89 -7.78)" style="fill:#1d1d1b;stroke:#e30613;stroke-miterlimit:10;stroke-width:2px"/></svg>